# xmcd
#
# Track frame offsets: 
#        150
#        14655
#        27867
#        37442
#        51025
#        65545
#        77025
#        88590
#        99825
#        112575
#        123445
#        135622
#        149735
#        161497
#
# Disc length: 2357 seconds
#
# Revision: 1
# Processed by: cddbd v1.4PL0 Copyright (c) Steve Scherf et al.
# Submitted via: ExactAudioCopy v0.90b3
#
DISCID=bb09330e
DTITLE=George Jones - 14 Greats
DYEAR=1988
DGENRE=Country
TTITLE0=If Drinkin' Don't Kill Me (Your Memory Will)
TTITLE1=Hello Darlin'
TTITLE2=Lonely Street
TTITLE3=Almost Persuaded
TTITLE4=Where Could I Go
TTITLE5=Hangin' On To One and Hangin' 'Round The Other
TTITLE6=Talk Back Trembling Lips
TTITLE7=Swinging Doors
TTITLE8=Don't Be Angry
TTITLE9=Once A Day
TTITLE10=Who'll Turn Out The Lights
TTITLE11=All I Have To Offer You
TTITLE12=The Shoe Goes On The Other Foot Tonight
TTITLE13=After You
EXTD=
EXTT0=
EXTT1=
EXTT2=
EXTT3=
EXTT4=
EXTT5=
EXTT6=
EXTT7=
EXTT8=
EXTT9=
EXTT10=
EXTT11=
EXTT12=
EXTT13=
PLAYORDER=
